<?xml version="1.0"?>
<svg xmlns="http://www.w3.org/2000/svg" viewBox="0 0 636 1048" width="636" height="1048">
  <rect width="636" height="1048" fill="#F6F6F9"/>
  
  <rect width="636" height="54" fill="#F6F6F9"/>
  <text x="40" y="34" font-family="'Apple SD Gothic Neo','Pretendard','Noto Sans KR',sans-serif" font-size="20" font-weight="700" fill="#111827">9:41</text>
  <g fill="#111827" transform="translate(506 18)">
    <rect x="0" y="8" width="6" height="10" rx="1"/>
    <rect x="10" y="5" width="6" height="13" rx="1"/>
    <rect x="20" y="2" width="6" height="16" rx="1"/>
    <rect x="44" y="4" width="42" height="16" rx="3" fill="none" stroke="#111827" stroke-width="1.5"/>
    <rect x="46" y="6" width="32" height="12" rx="1" fill="#111827"/>
  </g>

  
  <text x="40" y="130" font-family="'Apple SD Gothic Neo','Pretendard','Noto Sans KR',sans-serif" font-size="34" font-weight="900" letter-spacing="-1" fill="#111827">오늘의 말씀</text>
  <text x="40" y="165" font-family="'Apple SD Gothic Neo','Pretendard','Noto Sans KR',sans-serif" font-size="14" font-weight="500" fill="#6B7280">상황에 맞는 기도문을 읽어보세요</text>


  <g transform="translate(28 200)">
    <rect width="580" height="44" rx="12" fill="#F9FAFB"/>
    <text x="20" y="28" font-family="'Apple SD Gothic Neo','Pretendard','Noto Sans KR',sans-serif" font-size="13" font-weight="700" fill="#374151">30대 · 직장인 · 기혼</text>
    <text x="550" y="28" font-family="'Apple SD Gothic Neo','Pretendard','Noto Sans KR',sans-serif" font-size="12" font-weight="800" fill="#0D9488" text-anchor="end">수정</text>
  </g>

  <g transform="translate(28 260)">
    <rect width="108" height="36" rx="18" fill="#0D9488"/>
    <text x="54" y="24" font-family="'Apple SD Gothic Neo','Pretendard','Noto Sans KR',sans-serif" font-size="13" font-weight="800" text-anchor="middle" fill="#FFFFFF">✨ 맞춤</text>
    <g transform="translate(116 0)"><rect width="60" height="36" rx="18" fill="#F3F4F6"/><text x="30" y="24" font-family="'Apple SD Gothic Neo','Pretendard','Noto Sans KR',sans-serif" font-size="13" font-weight="700" text-anchor="middle" fill="#6B7280">전체</text></g>
    <g transform="translate(184 0)"><rect width="60" height="36" rx="18" fill="#F3F4F6"/><text x="30" y="24" font-family="'Apple SD Gothic Neo','Pretendard','Noto Sans KR',sans-serif" font-size="13" font-weight="700" text-anchor="middle" fill="#6B7280">감사</text></g>
    <g transform="translate(252 0)"><rect width="60" height="36" rx="18" fill="#F3F4F6"/><text x="30" y="24" font-family="'Apple SD Gothic Neo','Pretendard','Noto Sans KR',sans-serif" font-size="13" font-weight="700" text-anchor="middle" fill="#6B7280">치유</text></g>
  </g>

  <g transform="translate(28 320)">
    <rect width="580" height="40" rx="12" fill="#F0FDFA"/>
    <text x="290" y="26" font-family="'Apple SD Gothic Neo','Pretendard','Noto Sans KR',sans-serif" font-size="13" font-weight="800" text-anchor="middle" fill="#0D9488">12개 기도 완료 • 보기</text>
  </g>

  <g transform="translate(28 380)">
    <rect width="580" height="78" rx="16" fill="#FFFFFF"/>
    <text x="20" y="30" font-family="'Apple SD Gothic Neo','Pretendard','Noto Sans KR',sans-serif" font-size="11" font-weight="800" fill="#0D9488" letter-spacing="1">직장</text>
    <text x="20" y="58" font-family="'Apple SD Gothic Neo','Pretendard','Noto Sans KR',sans-serif" font-size="16" font-weight="700" fill="#111827">상사와의 관계를 위한 기도</text>

    <g transform="translate(0 90)">
      <rect width="580" height="78" rx="16" fill="#FFFFFF"/>
      <text x="20" y="30" font-family="'Apple SD Gothic Neo','Pretendard','Noto Sans KR',sans-serif" font-size="11" font-weight="800" fill="#0D9488" letter-spacing="1">가정</text>
      <text x="20" y="58" font-family="'Apple SD Gothic Neo','Pretendard','Noto Sans KR',sans-serif" font-size="16" font-weight="700" fill="#111827">부부 관계를 위한 기도</text>
    </g>
  </g>

  
    <rect x="0" y="948" width="636" height="100" fill="rgba(255,255,255,0.95)"/>
    <line x1="0" y1="948" x2="636" y2="948" stroke="#F3F4F6"/>
    
        
        
  <g transform="translate(92 968)" fill="#9CA3AF">
    <rect x="0" y="0" width="28" height="20" rx="2"/>
    <rect x="13" y="2" width="2" height="16" fill="#F6F6F9"/>
  </g>

        <text x="106" y="1022" font-family="'Apple SD Gothic Neo','Pretendard','Noto Sans KR',sans-serif" font-size="13" font-weight="600" text-anchor="middle" fill="#9CA3AF">퀴즈</text>
      
        <rect x="306" y="950" width="24" height="4" rx="2" fill="#0D9488"/>
        
  <g transform="translate(318 978)" fill="#0D9488">
    <path d="M -10,-10 L -4,4 C -3,7 -5,9 -8,9 L -12,9 C -14,9 -16,7 -15,5 Z"/>
    <path d="M 10,-10 L 4,4 C 3,7 5,9 8,9 L 12,9 C 14,9 16,7 15,5 Z"/>
  </g>

        <text x="318" y="1022" font-family="'Apple SD Gothic Neo','Pretendard','Noto Sans KR',sans-serif" font-size="13" font-weight="900" text-anchor="middle" fill="#0D9488">기도</text>
      
        
        
  <g transform="translate(530 978)" fill="#9CA3AF">
    <circle cx="0" cy="-6" r="6"/>
    <path d="M -12,10 C -12,2 -6,-2 0,-2 C 6,-2 12,2 12,10 Z"/>
  </g>

        <text x="530" y="1022" font-family="'Apple SD Gothic Neo','Pretendard','Noto Sans KR',sans-serif" font-size="13" font-weight="600" text-anchor="middle" fill="#9CA3AF">인물</text>
      
  

  
    <rect x="0" y="0" width="636" height="1048" fill="#000" opacity="0.35"/>
    <rect x="0" y="478" width="636" height="570" rx="28" fill="#FFFFFF"/>
    <rect x="296" y="490" width="44" height="5" rx="2.5" fill="#D1D5DB"/>
    <g transform="translate(0 512)">
    <g transform="translate(36 14)">
      <text font-family="'Apple SD Gothic Neo','Pretendard','Noto Sans KR',sans-serif" font-size="11" font-weight="800" fill="#0D9488" letter-spacing="1">직장 · 맞춤</text>
      <text y="32" font-family="'Apple SD Gothic Neo','Pretendard','Noto Sans KR',sans-serif" font-size="22" font-weight="900" fill="#111827">출근길의 기도</text>

      <g font-family="'Apple SD Gothic Neo','Pretendard','Noto Sans KR',sans-serif" font-size="15" fill="#374151">
        <text y="72">사랑하는 하나님, 오늘도 저를 일터로</text>
        <text y="100">보내시는 주님께 감사드립니다.</text>
        <text y="140">바쁜 아침 한 걸음마다 주님과 동행하게</text>
        <text y="168">하시고, 오늘 만나는 사람들을 사랑으로</text>
        <text y="196">품게 하소서. 예수님의 이름으로, 아멘.</text>
      </g>

      <g transform="translate(0 228)">
        <rect width="564" height="76" rx="12" fill="#FEF3C7"/>
        <text x="20" y="28" font-family="'Apple SD Gothic Neo','Pretendard','Noto Sans KR',sans-serif" font-size="11" font-weight="800" fill="#B45309" letter-spacing="1">관련 말씀 · 시편 118:24</text>
        <text x="20" y="54" font-family="'Apple SD Gothic Neo','Pretendard','Noto Sans KR',sans-serif" font-size="13" fill="#374151">"이 날은 여호와께서 정하신 것이라</text>
        <text x="20" y="72" font-family="'Apple SD Gothic Neo','Pretendard','Noto Sans KR',sans-serif" font-size="13" fill="#374151">이 날에 우리가 즐거워하고 기뻐하리로다"</text>
      </g>

      <g transform="translate(0 324)">
        <rect width="564" height="52" rx="14" fill="#0D9488"/>
        <text x="282" y="34" font-family="'Apple SD Gothic Neo','Pretendard','Noto Sans KR',sans-serif" font-size="16" font-weight="800" text-anchor="middle" fill="#FFFFFF">따라 읽기</text>
      </g>
      <g transform="translate(0 388)">
        <rect width="564" height="52" rx="14" fill="#F0FDFA" stroke="#0D9488" stroke-width="2"/>
        <text x="282" y="34" font-family="'Apple SD Gothic Neo','Pretendard','Noto Sans KR',sans-serif" font-size="16" font-weight="800" text-anchor="middle" fill="#0D9488">읽음 표시 (아멘)</text>
      </g>
    </g>
  </g>
  
</svg>